# xmcd CD database file
#
# Track frame offsets:
#	150
#	14099
#	30513
#	51760
#	68604
#	81764
#	111616
#	141510
#	158459
#	176459
#	198282
#	216766
#	234294
#	249613
#	267274
#	288441
#	304773
#	323776
#
# Disc length: 4582 seconds
#
# Revision: 0
# Processed by: cddbd v1.5.2PL0 Copyright (c) Steve Scherf et al.
# Submitted via: CDex 1.70beta2
#
DISCID=fd11e412
DTITLE=Various Artist - Jazz Pop Female Voices CD1
DYEAR=2009
DGENRE=Jazz
TTITLE0=Norah Jones - Don't know why
TTITLE1=Kristina Train - Split Milk
TTITLE2=Lila Downs - I would never
TTITLE3=Jackie Allen - Hot Stone Soup
TTITLE4=Holly Cole - I want you
TTITLE5=Caecilie Norby - Tea in Sahara
TTITLE6=Cassandra Wilson - Til there was you
TTITLE7=Molly Johnson - melody
TTITLE8=Rachelle Ferrell - Run to me
TTITLE9=Rebecka Törnquist - Nothing ever
TTITLE10=Corinne Bailey Rae - I'd like to
TTITLE11=Keri Noble - Let it rain
TTITLE12=Suzanne Vega - Pornographer's dream
TTITLE13=Coralie Clement - Samba De Mon Coeur Qui Bat
TTITLE14=Robin McKelle - Make someone happy
TTITLE15=Patricia Barber - You're the top
TTITLE16=Lena Horne - Singin' in the rain
TTITLE17=Stacey Kent - What a wonderful world
EXTD=YEAR: 2009
EXTT0=
EXTT1=
EXTT2=
EXTT3=
EXTT4=
EXTT5=
EXTT6=
EXTT7=
EXTT8=
EXTT9=
EXTT10=
EXTT11=
EXTT12=
EXTT13=
EXTT14=
EXTT15=
EXTT16=
EXTT17=
PLAYORDER=
